<svg width="180" height="180" viewBox="0 0 180 180" fill="none" xmlns="http://www.w3.org/2000/svg">
<rect width="180" height="180" rx="90" fill="black"/>
<path fill-rule="evenodd" clip-rule="evenodd" d="M66.5935 75.9054C62.0221 72.9063 59 67.7139 59 61.8107C59 52.5264 66.4754 45 75.6966 45H104.303C113.525 45 121 52.5264 121 61.8107C121 67.7139 117.978 72.9063 113.407 75.9054C117.978 78.9045 121 84.097 121 90.0001C121 99.2844 113.525 106.811 104.303 106.811H103.999C99.6401 106.811 95.6712 105.129 92.6976 102.375V118.036C92.6976 127.424 85.0587 135 75.7723 135C66.57 135 59 127.493 59 118.189C59 112.286 62.022 107.094 66.5932 104.095C62.022 101.096 59 95.9032 59 90.0001C59 84.097 62.0221 78.9045 66.5935 75.9054ZM92.6976 90.0001C92.6976 96.2844 97.7575 101.379 103.999 101.379H104.303C110.545 101.379 115.605 96.2844 115.605 90.0001C115.605 83.7159 110.545 78.6216 104.303 78.6216H103.999C97.7575 78.6216 92.6976 83.7159 92.6976 90.0001ZM87.3024 78.6216H75.6966C69.455 78.6216 64.3953 83.7159 64.3953 90.0001C64.3953 96.2716 69.4346 101.358 75.6586 101.379H75.6764H87.3024V78.6216ZM75.6966 106.811C75.684 106.811 75.6713 106.811 75.6586 106.811C69.4346 106.831 64.3953 111.918 64.3953 118.189C64.3953 124.455 69.5118 129.568 75.7723 129.568C82.1169 129.568 87.3024 124.386 87.3024 118.036V106.811H75.6966ZM87.3024 73.1892H75.6966C69.455 73.1892 64.3953 68.0949 64.3953 61.8107C64.3953 55.5264 69.455 50.4321 75.6966 50.4321H87.3024V73.1892ZM104.303 73.1892H92.6976V50.4321H104.303C110.545 50.4321 115.605 55.5264 115.605 61.8107C115.605 68.0949 110.545 73.1892 104.303 73.1892Z" fill="white"/>
</svg>
