<svg width="180" height="180" viewBox="0 0 180 180" fill="none" xmlns="http://www.w3.org/2000/svg">
<rect width="180" height="180" rx="90" fill="black"/>
<path d="M137.996 85.491L94.3872 41.8856C93.7902 41.2878 93.0813 40.8136 92.301 40.4901C91.5206 40.1665 90.6841 40 89.8393 40C88.9946 40 88.1581 40.1665 87.3777 40.4901C86.5974 40.8136 85.8884 41.2878 85.2915 41.8856L76.235 50.9421L87.7198 62.4269C89.07 61.9684 90.5216 61.8968 91.9104 62.2202C93.2992 62.5437 94.5698 63.2494 95.5785 64.2573C96.5925 65.2728 97.3006 66.5528 97.6222 67.9514C97.9437 69.35 97.8657 70.8108 97.3969 72.1671L108.465 83.2367C109.822 82.7654 111.283 82.6859 112.682 83.0074C114.082 83.3288 115.362 84.0382 116.376 85.0541C117.087 85.7647 117.651 86.6083 118.035 87.5368C118.42 88.4653 118.618 89.4605 118.618 90.4655C118.618 91.4705 118.42 92.4657 118.035 93.3942C117.651 94.3227 117.087 95.1663 116.376 95.8769C114.94 97.3123 112.993 98.1186 110.963 98.1186C108.932 98.1186 106.985 97.3123 105.549 95.8769C104.48 94.8087 103.752 93.4479 103.455 91.9661C103.159 90.4843 103.308 88.948 103.884 87.5508L93.5578 77.228V104.399C94.6477 104.937 95.5937 105.727 96.3173 106.704C97.041 107.681 97.5215 108.816 97.7191 110.015C97.9167 111.215 97.8257 112.444 97.4537 113.602C97.0816 114.759 96.4391 115.811 95.5796 116.67C94.869 117.381 94.0253 117.945 93.0968 118.33C92.1683 118.714 91.1732 118.912 90.1681 118.912C89.1631 118.912 88.1679 118.714 87.2394 118.33C86.3109 117.945 85.4673 117.381 84.7567 116.67C84.0458 115.96 83.4819 115.116 83.0972 114.187C82.7124 113.259 82.5144 112.264 82.5144 111.258C82.5144 110.253 82.7124 109.258 83.0972 108.329C83.4819 107.401 84.0458 106.557 84.7567 105.846C85.4736 105.128 86.3264 104.559 87.2654 104.174V76.753C86.3263 76.3696 85.4734 75.8023 84.7567 75.0845C83.6834 74.0099 82.9538 72.6405 82.6604 71.1503C82.367 69.66 82.5231 68.1163 83.1089 66.715L71.785 55.391L41.885 85.2867C41.2874 85.8841 40.8133 86.5933 40.4899 87.3739C40.1665 88.1545 40 88.9912 40 89.8362C40 90.6811 40.1665 91.5178 40.4899 92.2984C40.8133 93.079 41.2874 93.7883 41.885 94.3856L85.4948 137.996C86.7013 139.202 88.3371 139.879 90.0426 139.879C91.7481 139.879 93.3838 139.202 94.5904 137.996L137.996 94.59C139.201 93.3825 139.878 91.7464 139.878 90.0405C139.878 88.3346 139.201 86.6985 137.996 85.491Z" fill="white"/>
</svg>
