<svg width="70" height="83" viewBox="0 0 70 83" fill="none" xmlns="http://www.w3.org/2000/svg">
<path fill-rule="evenodd" clip-rule="evenodd" d="M69.9647 34.978C69.9647 25.7012 66.2796 16.8044 59.7199 10.2448C53.1603 3.68516 44.2635 0 34.9868 0C25.71 0 16.8133 3.68516 10.2536 10.2448C3.69397 16.8044 0.00881501 25.7012 0.00881501 34.978H0L0.0440751 47.3895C0.0440751 56.6662 3.72923 65.563 10.2889 72.1227C16.8485 78.6823 25.7453 82.3675 35.022 82.3675H48.5619V68.866H35.022C29.3261 68.866 23.8635 66.6033 19.8359 62.5757C15.8083 58.548 13.5456 53.0854 13.5456 47.3895H56.4601V81.2391H70V34.978H69.9647ZM56.4632 34.978H13.5103C13.5103 29.2821 15.773 23.8194 19.8006 19.7918C23.8282 15.7642 29.2909 13.5015 34.9868 13.5015C40.6827 13.5015 46.1453 15.7642 50.1729 19.7918C54.2005 23.8194 56.4632 29.2821 56.4632 34.978Z" fill="black"/>
</svg>
