<svg width="180" height="180" viewBox="0 0 180 180" fill="none" xmlns="http://www.w3.org/2000/svg">
<rect width="180" height="180" rx="90" fill="black"/>
<g clip-path="url(#clip0_1_17)">
<path d="M90.1757 80.332C84.8858 80.332 80.5975 84.6212 80.5975 89.9121C80.5975 95.203 84.8858 99.4922 90.1757 99.4922C95.4656 99.4922 99.7539 95.203 99.7539 89.9121C99.7539 84.6212 95.4656 80.332 90.1757 80.332Z" fill="white"/>
<path d="M139.993 89.999C139.993 82.4779 133.029 75.8815 121.942 71.5404C122.09 70.5627 122.224 69.5957 122.32 68.6463C123.413 57.8393 120.81 50.0394 114.993 46.6794C108.485 42.9207 99.2917 45.6489 89.9965 53.0888C80.7013 45.6489 71.5084 42.9207 65 46.6794C59.183 50.0394 56.5797 57.8393 57.6732 68.6463C57.7684 69.5957 57.899 70.5663 58.0507 71.5474C57.1264 71.9004 56.2198 72.2745 55.3485 72.6662C45.4501 77.1168 40 83.2791 40 89.999C40 97.5201 46.9635 104.117 58.0507 108.458C57.899 109.435 57.7684 110.402 57.6732 111.352C56.5797 122.159 59.183 129.959 65 133.319C66.9999 134.453 69.2661 135.033 71.5648 134.999C77.0749 134.999 83.5092 132.097 89.9965 126.909C96.4802 132.097 102.918 134.999 108.435 134.999C110.734 135.032 113 134.452 115 133.319C120.817 129.959 123.42 122.159 122.327 111.352C122.232 110.402 122.098 109.435 121.949 108.458C133.037 104.124 140 97.5166 140 89.999M108.393 49.7641C109.871 49.7284 111.332 50.0866 112.626 50.8018C116.665 53.1347 118.478 59.4628 117.596 68.1628C117.536 68.7557 117.466 69.3557 117.381 69.9592C112.771 68.5702 108.05 67.5795 103.271 66.9981C100.373 63.1449 97.1516 59.547 93.6405 56.2441C99.1541 51.9806 104.329 49.7641 108.389 49.7641M106.495 99.5283C104.711 102.626 102.768 105.63 100.674 108.528C97.1257 108.893 93.5604 109.074 89.9929 109.072C86.4266 109.074 82.8626 108.893 79.3149 108.528C77.2269 105.63 75.29 102.626 73.5121 99.5283C71.728 96.4387 70.1067 93.258 68.6546 89.999C70.1067 86.7401 71.728 83.5593 73.5121 80.4697C75.2872 77.3841 77.2181 74.3908 79.2973 71.5015C82.8514 71.1278 86.4228 70.9416 89.9965 70.9439C93.5628 70.9417 97.1268 71.1232 100.674 71.4874C102.761 74.3811 104.699 77.3791 106.481 80.4697C108.264 83.56 109.885 86.7407 111.338 89.999C109.885 93.2573 108.264 96.438 106.481 99.5283M113.765 95.999C114.885 99.0534 115.804 102.178 116.517 105.352C113.423 106.317 110.27 107.077 107.077 107.628C108.291 105.798 109.466 103.893 110.605 101.914C111.73 99.9589 112.785 97.986 113.779 96.0131M83.2976 113.621C85.4917 113.755 87.7318 113.833 90 113.833C92.2682 113.833 94.5224 113.755 96.72 113.621C94.6363 116.118 92.3915 118.476 90 120.68C87.6136 118.476 85.3747 116.118 83.2976 113.621ZM72.9194 107.621C69.7254 107.073 66.5708 106.314 63.4761 105.352C64.186 102.183 65.1016 99.0631 66.217 96.0131C67.1977 97.986 68.2489 99.9589 69.3918 101.914C70.5348 103.869 71.7165 105.797 72.9194 107.628M66.217 83.9814C65.1056 80.9427 64.1924 77.835 63.4831 74.678C66.5702 73.7143 69.7163 72.9515 72.9018 72.3945C71.6954 74.2192 70.5136 76.1109 69.3742 78.0838C68.2348 80.0568 67.1942 82.005 66.1994 83.9814M96.6989 66.3734C94.5047 66.2392 92.2647 66.1616 89.9788 66.1616C87.7118 66.1616 85.4776 66.2322 83.2764 66.3734C85.3535 63.876 87.5925 61.518 89.9788 59.3146C92.3712 61.5174 94.6161 63.8754 96.6989 66.3734ZM110.598 78.0838C109.455 76.1027 108.273 74.1968 107.052 72.3662C110.254 72.9174 113.416 73.6791 116.517 74.6462C115.805 77.815 114.89 80.9344 113.776 83.985C112.795 82.012 111.741 80.0391 110.601 78.0874M62.4108 68.1663C61.5183 59.4699 63.342 53.1382 67.3776 50.8053C68.6722 50.0912 70.1328 49.7332 71.6107 49.7676C75.6709 49.7676 80.8459 51.9841 86.3595 56.2476C82.8461 59.5529 79.6218 63.1531 76.7222 67.0087C71.9441 67.5928 67.2238 68.5798 62.6118 69.9592C62.5307 69.3557 62.4566 68.7592 62.4002 68.1663M57.3028 77.0109C57.8461 76.7756 58.3999 76.5403 58.9643 76.305C60.0739 80.9887 61.5785 85.5698 63.462 89.999C61.575 94.437 60.0691 99.0276 58.9608 103.721C49.9725 100.033 44.7622 94.9225 44.7622 89.999C44.7622 85.3332 49.3481 80.6003 57.3028 77.0109ZM67.3776 129.193C63.342 126.86 61.5183 120.528 62.4108 111.832C62.4672 111.239 62.5413 110.642 62.6224 110.035C67.2326 111.424 71.9534 112.415 76.7327 112.996C79.631 116.851 82.8528 120.451 86.3631 123.757C78.6765 129.697 71.653 131.656 67.3882 129.193M117.593 111.832C118.475 120.532 116.661 126.86 112.622 129.193C108.361 131.663 101.334 129.697 93.651 123.757C97.1602 120.451 100.381 116.851 103.278 112.996C108.057 112.415 112.778 111.424 117.388 110.035C117.473 110.642 117.543 111.239 117.603 111.832M121.053 103.714C119.942 99.0233 118.435 94.4351 116.549 89.999C118.434 85.5605 119.94 80.97 121.05 76.2768C130.02 79.965 135.245 85.0755 135.245 89.999C135.245 94.9225 130.035 100.033 121.046 103.721" fill="white"/>
</g>
<defs>
<clipPath id="clip0_1_17">
<rect width="100" height="90" fill="white" transform="translate(40 45)"/>
</clipPath>
</defs>
</svg>
