<svg width="180" height="180" viewBox="0 0 180 180" fill="none" xmlns="http://www.w3.org/2000/svg">
<rect width="180" height="180" rx="90" fill="black"/>
<mask id="mask0_1_30" style="mask-type:luminance" maskUnits="userSpaceOnUse" x="40" y="60" width="100" height="60">
<path d="M40 60H140V120H40V60Z" fill="white"/>
</mask>
<g mask="url(#mask0_1_30)">
<path fill-rule="evenodd" clip-rule="evenodd" d="M90 60C76.6667 60 68.3333 66.6667 65 80C70 73.3333 75.8333 70.8333 82.5 72.5C86.3037 73.45 89.0222 76.2111 92.0315 79.2648C96.9333 84.2407 102.607 90 115 90C128.333 90 136.667 83.3333 140 70C135 76.6667 129.167 79.1667 122.5 77.5C118.696 76.55 115.978 73.7889 112.969 70.7352C108.067 65.7593 102.393 60 90 60ZM65 90C51.6667 90 43.3333 96.6667 40 110C45 103.333 50.8333 100.833 57.5 102.5C61.3037 103.452 64.0222 106.211 67.0315 109.265C71.9333 114.241 77.6074 120 90 120C103.333 120 111.667 113.333 115 100C110 106.667 104.167 109.167 97.5 107.5C93.6963 106.55 90.9778 103.789 87.9685 100.735C83.0667 95.7593 77.3926 90 65 90Z" fill="white"/>
</g>
</svg>
