<svg width="180" height="180" viewBox="0 0 180 180" fill="none" xmlns="http://www.w3.org/2000/svg">
<rect width="180" height="180" rx="90" fill="black"/>
<path fill-rule="evenodd" clip-rule="evenodd" d="M99.3833 74.375H122.817C123.183 74.375 123.55 74.4 123.9 74.45L99.4417 98.9083C99.3894 98.5426 99.3629 98.1736 99.3625 97.8042V74.375H89.9875V97.8042C89.9869 100.061 90.4311 102.297 91.2947 104.382C92.1583 106.468 93.4243 108.363 95.0204 109.959C96.6165 111.555 98.5114 112.821 100.597 113.684C102.683 114.548 104.918 114.992 107.175 114.992H130.608V105.617H107.175C106.8 105.617 106.429 105.592 106.071 105.542L130.546 81.0625C130.6 81.435 130.628 81.811 130.629 82.1875V105.617H140V82.1833C140 79.9268 139.556 77.6923 138.692 75.6076C137.828 73.5228 136.563 71.6285 134.967 70.0329C133.371 68.4373 131.477 67.1715 129.392 66.308C127.308 65.4445 125.073 65 122.817 65H99.3833V74.375ZM40 71.25V71.275L72.025 112.058C75.875 116.958 83.7458 114.238 83.7458 108.004V71.25H74.375V99.875L51.9 71.25H40Z" fill="white"/>
</svg>
